<?xml version="1.0" encoding="iso-8859-1"?>
<!-- Generator: Adobe Illustrator 19.0.0, SVG Export Plug-In . SVG Version: 6.00 Build 0)  -->
<svg version="1.1" id="Layer_1" xmlns="http://www.w3.org/2000/svg" xmlns:xlink="http://www.w3.org/1999/xlink" x="0px" y="0px"
	 viewBox="0 0 206.817 206.817" style="enable-background:new 0 0 206.817 206.817;" xml:space="preserve">
<g>
	<g>
		<g>
			<path d="M147.704,62.524c0.913,0,1.825-0.348,2.521-1.045l18.252-18.251c1.393-1.393,1.393-3.649,0-5.042s-3.649-1.393-5.042,0
				l-18.252,18.251c-1.393,1.393-1.393,3.649,0,5.042C145.879,62.175,146.792,62.524,147.704,62.524z"/>
			<path d="M55.444,61.479c0.696,0.696,1.609,1.045,2.521,1.045c0.912,0,1.825-0.348,2.521-1.045c1.393-1.393,1.393-3.649,0-5.042
				L42.234,38.186c-1.393-1.393-3.649-1.393-5.042,0s-1.393,3.649,0,5.042L55.444,61.479z"/>
			<path d="M55.444,146.177l-18.252,18.252c-1.393,1.393-1.393,3.649,0,5.042c0.696,0.696,1.609,1.045,2.521,1.045
				s1.825-0.348,2.521-1.045l18.252-18.252c1.393-1.393,1.393-3.649,0-5.042S56.837,144.784,55.444,146.177z"/>
			<path d="M150.225,146.177c-1.393-1.393-3.649-1.393-5.042,0c-1.393,1.393-1.393,3.649,0,5.042l18.252,18.252
				c0.696,0.696,1.609,1.045,2.521,1.045c0.912,0,1.825-0.348,2.521-1.045c1.393-1.393,1.393-3.649,0-5.042L150.225,146.177z"/>
			<path d="M103.408,49.846c-29.493,0-53.487,23.994-53.487,53.487c0,29.493,23.994,53.487,53.487,53.487
				c29.493,0,53.487-23.994,53.487-53.487S132.901,49.846,103.408,49.846z M103.408,149.689c-25.561,0-46.356-20.794-46.356-46.356
				c0-25.562,20.794-46.356,46.356-46.356s46.356,20.794,46.356,46.356C149.764,128.895,128.97,149.689,103.408,149.689z"/>
			<path d="M203.251,99.843h-37.366c-1.969,0-3.566,1.597-3.566,3.566s1.597,3.566,3.566,3.566h37.366
				c1.969,0,3.566-1.597,3.566-3.566S205.22,99.843,203.251,99.843z"/>
			<path d="M44.498,103.408c0-1.969-1.597-3.566-3.566-3.566H3.566c-1.969,0-3.566,1.597-3.566,3.566
				c0,1.969,1.597,3.566,3.566,3.566h37.366C42.901,106.974,44.498,105.377,44.498,103.408z"/>
			<path d="M103.408,162.319c-1.969,0-3.566,1.597-3.566,3.566v37.366c0,1.969,1.597,3.566,3.566,3.566s3.566-1.597,3.566-3.566
				v-37.366C106.974,163.916,105.377,162.319,103.408,162.319z"/>
			<path d="M103.408,44.498c1.969,0,3.566-1.597,3.566-3.566V3.566c0-1.969-1.597-3.566-3.566-3.566s-3.566,1.597-3.566,3.566
				v37.366C99.843,42.901,101.439,44.498,103.408,44.498z"/>
		</g>
	</g>
</g>
<g>
</g>
<g>
</g>
<g>
</g>
<g>
</g>
<g>
</g>
<g>
</g>
<g>
</g>
<g>
</g>
<g>
</g>
<g>
</g>
<g>
</g>
<g>
</g>
<g>
</g>
<g>
</g>
<g>
</g>
</svg>
